<svg xmlns="http://www.w3.org/2000/svg" viewBox="0 0 2265 2255.6" width="2265" height="2255.6" fill="none" role="img" aria-label="Nestaid logo">
  <path d="M1546.6 1C1510.8 1.8 1464.9 3.7 1451.3 5C1445.3 5.6 1436.6 7 1432 8.1C1427.4 9.2 1417 10.7 1408.9 11.5C1377.3 14.5 1371.9 15.3 1360.6 18.6C1354.3 20.5 1345.7 22.5 1341.6 23.1C1323.5 25.7 1320.6 26.3 1311.1 29.5C1305.6 31.4 1295.5 33.8 1288.6 34.9C1281.7 36.1 1271.6 38.5 1266.1 40.4C1260.6 42.2 1251.4 44.8 1245.6 46C1239.9 47.2 1233 49.3 1230.3 50.6C1227.7 52 1220 54.5 1213.3 56.1C1206.6 57.8 1199.1 60.3 1196.5 61.6C1194 63 1187.7 65.2 1182.5 66.6C1177.3 68 1171.1 70.3 1168.6 71.6C1166.1 72.9 1159.3 75.6 1153.4 77.5C1147.5 79.4 1141.4 81.8 1139.9 82.9C1138.3 84 1133 86.2 1128.1 87.8C1123.1 89.4 1116.1 92.1 1112.5 93.9C1108.9 95.6 1102.9 97.9 1099.2 99C1095.5 100 1090.5 102.2 1088.1 103.8C1085.6 105.4 1080.8 107.8 1077.4 109C1073.9 110.3 1069.4 112.7 1067.3 114.3C1065.2 115.9 1060.2 118.5 1056.2 120C1052.2 121.5 1047.3 123.9 1045.5 125.3C1043.6 126.7 1039 129 1035.3 130.4C1031.5 131.8 1026.8 134.3 1024.8 135.8C1022.7 137.4 1018.1 140.1 1014.4 141.8C1010.6 143.5 1006.1 146 1004.4 147.4C1002.6 148.7 998.4 151 995.2 152.4C991.9 153.9 987.8 156.1 986.2 157.4C984.5 158.7 980.4 161.1 977 162.8C973.7 164.5 970.3 166.6 969.5 167.6C968.7 168.5 964.9 170.8 961 172.6C957 174.4 951.7 177.5 949.1 179.4C946.6 181.4 943.8 183 943.1 183C941.9 183 927 192.4 918.2 198.7C916.1 200.2 911.5 203.2 907.9 205.2C904.4 207.2 900.2 210 898.4 211.5C896.7 212.9 893.2 215.2 890.6 216.5C888.1 217.8 885.4 219.6 884.6 220.5C883.8 221.4 879.8 223.9 875.7 226C871.5 228.1 866.8 231 865.2 232.5C863.6 233.9 859.9 236.2 856.9 237.6C853.9 238.9 850.1 241.1 848.4 242.5C846.7 243.9 843.5 246 841.2 247.2C839 248.3 835.2 251 832.9 253.1C830.7 255.1 827.1 257.7 824.9 258.8C822.8 259.9 820.2 261.8 819.1 263C818 264.2 815.1 266.6 812.7 268.3C808.5 271.2 804.8 274.2 791.6 285.9C788.6 288.5 783.2 293.2 779.6 296.4C776 299.5 771.4 303.6 769.4 305.4C767.4 307.3 764.5 309.7 762.9 310.6C761.4 311.6 758 314.2 755.5 316.5C752.9 318.7 749 321.8 746.8 323.5C741.8 327.2 729 337.4 721.1 344C717.8 346.8 713.3 350.3 711.1 351.9C705.8 355.8 696.8 363.4 683.8 374.9C677.9 380.1 671 385.8 668.4 387.7C665.9 389.5 663.6 391.6 663.3 392.3C663 393 660.9 394.9 658.5 396.5C656.2 398.2 649.9 403.8 644.5 409C639.2 414.2 631.3 421.9 627 426.1C622.6 430.3 618.3 434.9 617.3 436.4C616.3 437.9 613.6 440.2 611.3 441.7C609 443.1 606.5 445.1 605.8 446.2C604.1 448.5 602.4 448.5 600.3 446.2C598.7 444.5 598.6 428.5 598.6 235.9C598.6 88.6 598.3 26.3 597.5 23.5C596.9 21.3 595.6 18.6 594.6 17.5C592.7 15.5 591.4 15.5 300.4 15.5C71.1 15.5 7.6 15.8 6 16.7C4.8 17.4 3.3 19.4 2.7 21.1C1.9 23.5 1.6 314.7 1.5 1097.9C1.4 1688.4 1.1 2188.1 0.7 2208.5L0 2245.5L2.2 2249.1C4.4 2252.6 4.7 2252.7 11.3 2253.3C15 2253.6 123.2 2253.9 251.6 2254C380 2254.1 506.7 2254.5 533.1 2254.9L581.1 2255.6L586.7 2253.2C594 2250.2 596 2246.9 595 2239.7C594.6 2236.8 594 2013.3 593.6 1743C593.1 1383.3 592.6 1250.4 591.8 1247.5C590.4 1242.6 588.8 1218.7 587.5 1186C584.9 1115.1 584.7 1111.4 582.2 1094.6C580.7 1085.4 579.4 1077.5 579.2 1077.1C578.4 1075.9 576.7 1060.5 575.1 1041C574.2 1030.3 572.2 1014 570.5 1004.8C568.1 991.4 567.4 984.1 566.9 967.3C566.2 941.5 567.8 915.2 570.8 904.8C571.9 900.8 574.1 891.9 575.6 885C578.5 871.8 586.6 852 591.1 847C592.3 845.6 594.6 842.5 596.1 840C597.6 837.5 600.5 833.9 602.5 831.9C604.5 829.9 607.3 827 608.7 825.4C613.6 820.1 621 814.3 627.1 811.2C630.4 809.5 634.6 807 636.5 805.6C638.4 804.2 642.2 802.3 645 801.4C647.8 800.5 653.6 798 657.9 795.9C665.5 792.2 669.5 791.1 690.1 787C695.6 786 702.6 784.3 705.6 783.4C709.6 782.3 717.1 781.7 733.7 781.3C761 780.6 778.7 782 794.1 786C800.2 787.6 810.6 789.4 817.3 789.9C831 791.1 840.8 793 849.3 796C852.5 797.1 863.9 799.4 874.7 801C885.5 802.7 898.1 805.1 902.7 806.4C914 809.7 919 810.5 940.1 813C950 814.2 962.9 816.2 968.7 817.5C979 819.9 992.2 821.7 1016.1 824.1C1034.6 825.9 1089 826.4 1114.1 825.1C1140.2 823.6 1170.9 820.5 1178.6 818.5C1181.6 817.7 1186.5 816.3 1189.4 815.5C1192.3 814.7 1200.2 813.1 1206.9 812C1214.1 810.7 1223.2 808.3 1229.1 806C1234.6 803.9 1242.6 801.2 1247 800.1C1251.3 798.9 1256 797.1 1257.3 796C1258.6 795 1264.1 792.7 1269.4 790.9C1274.7 789.2 1281.8 786.3 1285.1 784.4C1288.4 782.6 1293.8 780.4 1297.1 779.5C1300.4 778.6 1305.6 776.4 1308.6 774.6C1311.6 772.8 1317 770.3 1320.6 769C1324.2 767.8 1328.5 765.6 1330.3 764.4C1332 763.1 1336.8 760.5 1340.8 758.7C1344.9 756.8 1350.1 753.9 1352.3 752.3C1354.6 750.7 1358.6 748.5 1361.3 747.5C1363.9 746.5 1368.6 744 1371.6 742C1374.6 739.9 1378.1 738 1379.4 737.6C1380.6 737.2 1383.6 735.4 1385.9 733.6C1388.3 731.8 1393.3 728.5 1397.1 726.3C1401 724 1405 721.2 1406.1 720C1407.2 718.8 1409.4 717.1 1411.1 716.3C1412.7 715.5 1415.5 713.5 1417.1 711.9C1418.8 710.4 1422.4 707.4 1425.3 705.3C1436.2 697.3 1445.2 690.2 1447.1 688C1448.2 686.8 1451 684.7 1453.4 683.3C1455.7 681.9 1458.1 679.9 1458.7 678.8C1459.3 677.8 1462.2 675.3 1465.2 673.4C1468.2 671.4 1471 669.2 1471.3 668.4C1471.6 667.6 1473.9 665.5 1476.5 663.8C1479 662.1 1483.1 658.8 1485.6 656.6C1492.4 650.4 1533 609.5 1551.6 590C1575.6 564.9 1574.9 565.6 1592.2 546.3C1594.7 543.4 1598 539.3 1599.5 537.1C1604.8 529.1 1620.7 510 1637 491.8C1647.7 479.8 1649.7 477.4 1651.6 474.5C1652.6 472.9 1654.9 470.2 1656.6 468.5C1659.9 465.3 1669.1 453.5 1674.3 446C1676 443.5 1678.4 440.6 1679.6 439.5C1680.9 438.4 1682.7 436.2 1683.6 434.7C1689 426 1733.6 381.5 1744.1 374.4C1746.3 373 1749.2 370.6 1750.6 369.3C1754.5 365.5 1768.6 355.5 1773.6 353C1776.1 351.8 1779.5 349.5 1781.1 348C1782.8 346.5 1787.3 344.2 1791.1 343C1795 341.8 1800.4 339.5 1803.1 338C1808.2 335.1 1816.4 332.7 1834.1 329C1846.3 326.4 1872.6 325.3 1883.6 326.9C1898.2 328.9 1921.1 334.1 1925.1 336.1C1927.3 337.3 1932.9 340.2 1937.6 342.6C1942.3 345.1 1948.3 348.7 1951 350.8C1957.5 355.8 1969.8 367.8 1972.1 371.5C1973.2 373.2 1975.5 376.3 1977.2 378.5C1978.9 380.7 1981.6 385 1983.1 388C1984.6 391 1986.9 394.9 1988.2 396.7C1991.1 400.5 1992.1 403 1994.7 412.9C1995.8 417.1 1998 423.4 1999.6 427C2002.2 432.8 2002.8 436.6 2005.7 461.5C2009.2 492.4 2009.2 489.2 2005.1 539C2002.6 569.9 2001.4 577.1 1997.2 588.7C1996.3 591.1 1994.5 599.5 1993.1 607.5C1991.7 615.5 1989.5 624.6 1988.2 627.8C1986.8 631 1984.8 637.4 1983.6 642C1982.4 646.7 1980 653.5 1978.1 657.2C1976.2 660.9 1973.7 667.5 1972.6 672C1971.4 676.4 1969.1 682 1967.5 684.4C1965.9 686.8 1963.4 692.1 1962 696.1C1960.6 700.2 1957.7 707.1 1955.6 711.5C1953.5 715.9 1951.1 721.6 1950.1 724.2C1949.2 726.8 1947.3 730.6 1945.9 732.7C1944.4 734.8 1941.8 740 1940 744.2C1938.3 748.4 1935.9 753.2 1934.7 754.9C1933.5 756.5 1931.4 760.4 1930.1 763.5C1928.7 766.5 1926 771.3 1924.1 774.1C1922.2 776.9 1919.2 782.1 1917.5 785.6C1915.9 789.1 1914.1 792 1913.6 792C1913.1 792 1911.1 795.5 1909.1 799.7C1907.1 804 1904.1 808.9 1902.5 810.7C1900.9 812.6 1898.7 815.8 1897.7 817.8C1896.6 819.9 1895 822.3 1894 823.1C1893.1 823.9 1889.9 828.1 1886.9 832.5C1884 836.9 1879.2 843.7 1876.3 847.7C1873.5 851.6 1869.8 856.7 1868.1 859C1866.5 861.3 1863.5 865.1 1861.5 867.5C1859.5 869.9 1856.4 874.3 1854.7 877.2C1853.1 880.2 1850.7 883.5 1849.6 884.5C1848.4 885.6 1845.9 889 1844 892.1C1842.1 895.2 1839.9 898 1839.2 898.3C1838.4 898.6 1836.2 901.3 1834.3 904.2C1832.5 907.1 1830.1 910.2 1829.1 911C1828.1 911.8 1825.5 915 1823.3 918C1818.8 924.1 1811.7 932.6 1807.1 937.4C1805.4 939.1 1802.6 942.5 1800.9 945C1799.2 947.5 1796.8 950.4 1795.6 951.5C1794.4 952.6 1791.8 955.7 1790 958.5C1788.1 961.2 1784 967 1780.8 971.2C1777.7 975.4 1773.5 981 1771.6 983.6C1769.7 986.2 1766.2 990.2 1763.9 992.5C1761.7 994.8 1759.1 998.1 1758.2 999.7C1757.4 1001.4 1755.6 1003.5 1754.1 1004.4C1752.7 1005.3 1750.5 1007.7 1749.2 1009.8C1747.9 1011.8 1745.8 1014.6 1744.5 1016C1743.1 1017.4 1740.7 1020.3 1739.1 1022.5C1737.5 1024.7 1731.8 1031.7 1726.4 1038C1721 1044.3 1714 1052.6 1710.8 1056.4C1707.7 1060.1 1702.9 1065.6 1700.1 1068.5C1686.4 1082.9 1671 1101.4 1663.6 1112.4C1661.6 1115.3 1658.4 1119.3 1656.3 1121.3C1654.3 1123.4 1652.6 1125.7 1652.6 1126.5C1652.6 1127.3 1650.7 1130.2 1648.4 1132.9C1646 1135.6 1642.4 1140.5 1640.4 1143.7C1635.3 1151.5 1627.1 1162.1 1616.5 1174.3C1614.5 1176.6 1611.3 1181 1609.3 1184C1601.7 1195.4 1596.6 1202.6 1593.8 1206C1592.2 1207.9 1589.6 1212 1588.1 1215C1586.6 1218 1584.1 1222.1 1582.6 1224C1581.1 1225.9 1578.7 1229.7 1577.3 1232.5C1576 1235.2 1573.8 1238.4 1572.7 1239.4C1571.5 1240.5 1569.2 1244.2 1567.5 1247.7C1565.8 1251.2 1563.2 1255.5 1561.7 1257.3C1560.1 1259.1 1557.9 1262.4 1556.7 1264.7C1555.6 1267 1553.3 1270.4 1551.7 1272.2C1550.2 1274 1547.4 1278.3 1545.7 1281.6C1544 1285 1541.6 1288.6 1540.4 1289.6C1539.3 1290.7 1536.5 1295.3 1534.1 1300C1526.8 1314.7 1521.8 1323.8 1518.8 1328.2C1517.2 1330.6 1514.4 1335.6 1512.7 1339.5C1511 1343.3 1508.9 1347.2 1508 1348.1C1507.2 1349 1505 1353.6 1503.1 1358.4C1501.3 1363.1 1498.8 1368.2 1497.8 1369.8C1496.7 1371.3 1494.4 1376.8 1492.6 1382C1490.9 1387.2 1488.3 1393.5 1486.9 1396C1485.6 1398.5 1483.4 1404.3 1482 1409C1480.7 1413.7 1478.3 1420 1476.7 1423.1C1475.1 1426.2 1472.8 1432 1471.6 1436.1C1470.4 1440.2 1467.6 1446.8 1465.5 1450.9C1463.4 1455 1461.6 1459.1 1461.6 1460C1461.6 1463.3 1457.6 1477.4 1455.2 1482.4C1453.9 1485.2 1451.6 1493.5 1450.2 1500.9C1448.7 1508.2 1446.2 1517.5 1444.6 1521.4C1442.7 1526 1440.7 1534 1439.1 1543.1C1437.8 1551 1435.4 1561.5 1433.7 1566.5C1431.9 1572.1 1430 1581.5 1428.7 1591.6C1427.6 1600.5 1425.3 1613.3 1423.6 1620.1C1422 1627 1420 1639.4 1419.1 1648C1415.9 1681.3 1415.4 1685.8 1413.5 1695.4C1410.9 1709.2 1406.6 1766.9 1404.6 1814C1403.9 1830.5 1403.3 1836 1401.5 1842L1399.3 1849.5L1399.1 2045.5C1399.1 2153.3 1398.7 2242.2 1398.2 2243.2C1397 2245.8 1400.1 2250.6 1403.8 2251.9C1406.3 2252.8 1509.5 2253.2 1813.5 2253.6C2050.8 2253.8 2227.2 2254.4 2237.4 2255C2247.9 2255.5 2255.6 2255.5 2256.6 2255C2257.5 2254.5 2259.5 2252.5 2261 2250.5L2263.7 2247L2264.3 1851.2C2265 1431.2 2265 1431.5 2263.6 1380.5C2263.1 1361.8 2263.1 1331.2 2263.6 1310C2264.6 1265.2 2264.2 818.8 2263.2 817.2C2262.8 816.5 2262.1 805.8 2261.6 793.3C2261.1 780.7 2260.2 762.8 2259.6 753.5C2259 744.1 2258.1 729.7 2257.7 721.5C2257.2 713.2 2256.1 702 2255.3 696.5C2251.2 670.7 2250.5 664.4 2249.6 649C2248.3 627.3 2246.3 611.6 2242.7 594.5C2241.1 586.8 2239.2 575.1 2238.6 568.5C2237.2 553.6 2236.4 549.4 2233.3 540C2231.9 535.9 2229.6 525.3 2228.1 516.5C2226.6 507.7 2223.9 496 2222 490.5C2220.2 484.9 2217.8 474.5 2216.7 467C2215.3 457.2 2213.7 451.1 2211.2 445C2209.3 440.3 2207.2 433.3 2206.6 429.5C2205 420 2203.1 413.5 2200.6 409.5C2199.5 407.7 2197.2 400.9 2195.5 394.3C2193.9 387.8 2191.4 380.6 2190.1 378.3C2188.7 376.1 2186.7 370.2 2185.6 365.3C2184.4 360.5 2182 353.8 2180.2 350.5C2178.4 347.2 2175.7 340.7 2174.1 336C2172.6 331.3 2170.2 325.9 2168.9 323.9C2167.6 321.9 2165.2 316.8 2163.5 312.5C2161.9 308.2 2159.6 303.4 2158.5 301.8C2157.3 300.2 2154.9 295.2 2153 290.8C2151.2 286.4 2149 282 2148.2 281.1C2147.3 280.2 2145.1 276 2143.1 271.8C2141.2 267.6 2138.6 262.9 2137.2 261.3C2135.9 259.8 2133.9 256.6 2132.7 254.3C2131.6 252 2128.2 246.5 2125.3 242.2C2122.5 237.9 2119.3 233 2118.4 231.4C2116.4 228.1 2111.3 221.4 2106.4 215.6C2104.6 213.5 2101.8 209.8 2100.1 207.5C2086.1 187.7 2043.9 145.2 2022.4 129.2C2019.5 127 2016.2 124.3 2015.1 123C2014 121.8 2011.5 120 2009.6 119C2007.7 118 2004.8 115.8 2003.1 114C2001.5 112.2 1998.5 110 1996.6 109C1994.7 108 1991.3 105.8 1989.1 104C1986.9 102.2 1982.8 99.8 1980 98.5C1977.3 97.3 1973.4 94.9 1971.5 93.3C1969.7 91.7 1965.4 89.1 1962.1 87.6C1958.9 86.1 1954.7 83.8 1952.9 82.4C1951.1 81.1 1946.6 78.6 1942.8 77C1939 75.4 1933.6 72.5 1930.7 70.6C1927.8 68.6 1924.8 67 1924 67C1923.3 67 1918.5 64.8 1913.4 62.1C1908.3 59.4 1900.5 56.3 1896.1 55.1C1891.7 53.9 1886.7 52.1 1885 51.1C1883.4 50.1 1876.8 47.6 1870.5 45.5C1864.3 43.5 1857.1 40.7 1854.6 39.5C1852.1 38.2 1845.5 36 1840.1 34.5C1834.6 33 1827.4 30.7 1824.1 29.4C1820.8 28.1 1814.7 26.4 1810.6 25.5C1806.5 24.6 1796.9 22.2 1789.4 20C1781.9 17.8 1771.3 15.5 1765.9 14.9C1760.5 14.3 1750.3 12.8 1743.2 11.4C1736.1 10.1 1728.5 9 1726.2 9C1724 8.9 1717.2 7.8 1711.1 6.5C1699.6 3.9 1690.3 3.3 1631.1 1C1603.6 0 1595.2 0 1546.6 1Z" fill="#000000"/>
</svg>
